#!OML:ASF H:\Male1\Project 1\Capture day 1\Session 1\Male1.ASF
:FULLY-SPECIFIED
:DEGREES
242
root 5.68136 15.2434 2.32558 177.318 15.4389 183.965
lowerback 5.00763 1.33485 -0.213486
upperback -2.67219 1.71427 -2.88282
thorax -5.50371 0.837748 -3.04914
lowerneck -14.9665 5.73581 7.15891
upperneck 21.9708 7.29637 -1.4835
head 9.75909 4.07576 -0.711327
rclavicle -1.43125e-014 3.65764e-014
rhumerus -11.2184 -33.0709 2.73097
rradius 32.7834
rwrist -24.545
rhand -39.2403 4.27455
rfingers 7.12502
rthumb -12.2354 -25.3476
lclavicle -1.43125e-014 3.65764e-014
lhumerus -12.5517 39.9357 -9.89908
lradius 30.5471
lwrist 3.41522
lhand -47.6734 9.2347
lfingers 7.12502
lthumb -20.3546 38.188
rfemur 1.65667 24.2556 27.3621
rtibia 23.6224
rfoot -25.8398 -27.4604
rtoes -33.2959
lfemur 5.60697 -17.3158 -21.4398
ltibia 24.6995
lfoot -44.2894 30.6961
ltoes 19.283
243
root 5.67742 15.2492 2.35816 177.271 15.2477 183.843
lowerback 5.29185 1.32763 -0.388474
upperback -2.46544 1.68667 -2.87357
thorax -5.45555 0.830104 -2.94207
lowerneck -14.7397 5.91613 7.29287
upperneck 21.3787 7.48072 -1.50268
head 9.52394 4.15015 -0.732632
rclavicle -4.87022e-014 -1.43125e-014
rhumerus -10.3962 -33.0524 2.06896
rradius 33.9406
rwrist -24.5231
rhand -39.2584 5.16863
rfingers 7.12502
rthumb -12.2528 -24.4524
lclavicle -4.87022e-014 -1.43125e-014
lhumerus -11.8783 38.8851 -9.06281
lradius 31.727
lwrist 4.75497
lhand -47.8572 8.69909
lfingers 7.12502
lthumb -20.5312 37.6334
rfemur 1.61424 24.4299 27.259
rtibia 23.5276
rfoot -25.7561 -27.7381
rtoes -33.2483
lfemur 5.38335 -17.2142 -21.4281
ltibia 24.7298
lfoot -43.8496 30.7263
ltoes 18.8487
244
root 5.67345 15.2537 2.38927 177.205 15.1047 183.884
lowerback 5.64095 1.34593 -0.414995
upperback -2.28069 1.70203 -2.80277
thorax -5.46291 0.837312 -2.86121
lowerneck -14.3639 6.05214 7.32782
upperneck 20.7026 7.62276 -1.44579
head 9.22491 4.20763 -0.724552
rclavicle -3.10104e-014 1.90833e-014
rhumerus -9.89423 -32.0965 1.73895
rradius 35.3953
rwrist -25.0318
rhand -39.5247 5.23247
rfingers 7.12502
rthumb -12.5096 -24.3731
lclavicle -3.10104e-014 1.90833e-014
lhumerus -11.226 37.7662 -8.21702
lradius 33.0752
lwrist 6.07067
lhand -47.7623 8.55327
lfingers 7.12502
lthumb -20.44 37.4974
rfemur 1.63073 24.4203 27.3021
rtibia 23.4149
rfoot -25.9439 -27.6478
rtoes -32.4055
lfemur 5.28278 -17.3931 -21.377
ltibia 24.7756
lfoot -43.6861 30.9572
ltoes 18.4596
245
root 5.66971 15.2597 2.42021 177.18 14.9475 183.986
lowerback 5.95555 1.35702 -0.34584
upperback -2.13227 1.71602 -2.75931
thorax -5.48522 0.840527 -2.86268
lowerneck -13.9582 6.15986 7.47114
upperneck 20.115 7.71571 -1.37788
head 8.95624 4.25673 -0.736242
rclavicle -6.65929e-014 -3.18055e-014
rhumerus -9.70311 -30.665 1.5553
rradius 37.3147
rwrist -25.7877
rhand -40.0497 5.06488
rfingers 7.12502
rthumb -13.0157 -24.5091
lclavicle -6.65929e-014 -3.18055e-014
lhumerus -10.5721 36.663 -7.36284
lradius 34.6817
lwrist 7.46434
lhand -47.825 8.1484
lfingers 7.12502
lthumb -20.5003 37.0861
rfemur 1.60392 24.1676 27.3435
rtibia 23.2685
rfoot -25.7969 -27.5885
rtoes -32.2362
lfemur 5.15903 -17.6707 -21.2655
ltibia 24.8542
lfoot -43.7613 30.8709
ltoes 18.8702
246
root 5.66677 15.2661 2.45158 177.187 14.7909 184.067
lowerback 6.2312 1.37574 -0.241454
upperback -2.00075 1.74451 -2.76399
thorax -5.49988 0.85015 -2.93522
lowerneck -13.7005 6.26469 7.52714
upperneck 19.7421 7.81087 -1.20975
head 8.78207 4.31546 -0.691897
rclavicle -3.25013e-014 6.52014e-014
rhumerus -9.48554 -30.0899 1.14273
rradius 39.1606
rwrist -25.8991
rhand -40.256 5.89675
rfingers 7.12502
rthumb -13.2146 -23.6644
lclavicle -3.25013e-014 6.52014e-014
lhumerus -9.92133 35.4233 -6.53161
lradius 36.569
lwrist 9.23171
lhand -47.986 7.4825
lfingers 7.12502
lthumb -20.6549 36.4035
rfemur 1.55584 23.9851 27.3716
rtibia 23.0921
rfoot -25.408 -27.7279
rtoes -32.6358
lfemur 4.92772 -17.6039 -21.0419
ltibia 24.9554
lfoot -43.3851 30.7354
ltoes 18.878
247
root 5.66639 15.2712 2.48088 177.196 14.6766 184.156
lowerback 6.46483 1.4216 -0.190311
upperback -1.85894 1.80736 -2.7469
thorax -5.48014 0.879506 -2.95713
lowerneck -13.4042 6.33269 7.68964
upperneck 19.2965 7.85061 -1.13716
head 8.58345 4.34353 -0.70668
rclavicle 4.67144e-015 -4.45278e-014
rhumerus -9.24305 -29.4662 0.71228
rradius 41.1542
rwrist -26.0551
rhand -40.218 7.41073
rfingers 7.12502
rthumb -13.1779 -22.1528
lclavicle 4.67144e-015 -4.45278e-014
lhumerus -9.36555 34.1916 -5.72248
lradius 38.7308
lwrist 11.06
lhand -48.1821 6.91676
lfingers 7.12502
lthumb -20.8434 35.8171
rfemur 1.52654 23.9628 27.4548
rtibia 22.9349
rfoot -25.5181 -27.6444
rtoes -31.8611
lfemur 4.70679 -17.4058 -20.7803
ltibia 25.0321
lfoot -42.8347 30.742
ltoes 18.3706
248
root 5.66495 15.2758 2.50796 177.184 14.544 184.216
lowerback 6.66871 1.45679 -0.173981
upperback -1.73822 1.8542 -2.72894
thorax -5.46732 0.902419 -2.95658
lowerneck -12.95 6.40673 8.0537
upperneck 18.7804 7.91191 -1.24867
head 8.3518 4.37819 -0.818152
rclavicle -4.02539e-014 6.04305e-014
rhumerus -9.16082 -28.4675 0.346953
rradius 43.4183
rwrist -26.3402
rhand -40.4039 9.31135
rfingers 7.12502
rthumb -13.3571 -20.2405
lclavicle -4.02539e-014 6.04305e-014
lhumerus -9.07014 32.8314 -5.05114
lradius 41.1446
lwrist 12.7673
lhand -48.4792 6.66881
lfingers 7.12502
lthumb -21.1288 35.5375
rfemur 1.46877 23.7898 27.4717
rtibia 22.8458
rfoot -25.7905 -27.3368
rtoes -30.6318
lfemur 4.56312 -17.3752 -20.6113
ltibia 25.0458
lfoot -42.4858 30.7401
ltoes 18.1159
249
root 5.66225 15.2815 2.53385 177.152 14.3116 184.155
lowerback 6.88 1.44521 -0.222603
upperback -1.68761 1.83198 -2.77271
thorax -5.53573 0.892803 -2.97908
lowerneck -12.0446 6.63806 8.97876
upperneck 17.9395 8.25052 -2.04292
head 8.00257 4.51363 -1.22921
rclavicle -1.98785e-016 -1.90833e-014
rhumerus -9.25043 -27.2494 -0.034135
rradius 45.9194
rwrist -26.6984
rhand -40.8253 11.2832
rfingers 7.12502
rthumb -13.7633 -18.2416
lclavicle -1.98785e-016 -1.90833e-014
lhumerus -8.93221 31.3661 -4.55742
lradius 43.6663
lwrist 14.3667
lhand -48.7081 6.46737
lfingers 7.12502
lthumb -21.3486 35.3114
rfemur 1.35182 23.4315 27.3167
rtibia 22.8291
rfoot -25.8996 -27.0627
rtoes -29.9636
lfemur 4.42329 -17.4233 -20.5758
ltibia 24.9927
lfoot -41.9185 31.0364
ltoes 16.9737
250
root 5.66349 15.2881 2.55905 177.127 14.0934 183.922
lowerback 7.0784 1.45731 -0.438914
upperback -1.64955 1.82752 -2.84841
thorax -5.61333 0.89838 -2.94267
lowerneck -11.8776 6.46825 8.55822
upperneck 17.7692 7.99438 -1.44707
head 7.85825 4.42035 -1.0066
rclavicle 2.88238e-014 -1.43125e-014
rhumerus -9.28566 -26.1702 -0.350627
rradius 48.4327
rwrist -26.9957
rhand -40.8968 12.7794
rfingers 7.12502
rthumb -13.8321 -16.7406
lclavicle 2.88238e-014 -1.43125e-014
lhumerus -8.40384 30.3984 -3.75765
lradius 45.9399
lwrist 15.2948
lhand -48.9155 6.10049
lfingers 7.12502
lthumb -21.5478 34.9218
rfemur 1.1931 23.3427 27.0408
rtibia 22.8664
rfoot -25.7717 -27.1852
rtoes -30.291
lfemur 4.26123 -17.4483 -20.6979
ltibia 24.8849
lfoot -41.0884 31.6371
ltoes 14.9299
